<?xml version="1.0" encoding="utf-8"?>
<svg version="1.1" xmlns:xlink="http://www.w3.org/1999/xlink" width="280px" height="225px" xmlns="http://www.w3.org/2000/svg">
  <defs>
    <filter x="20px" y="2547px" width="280px" height="225px" filterUnits="userSpaceOnUse" id="filter667">
      <feOffset dx="0" dy="20" in="SourceAlpha" result="shadowOffsetInner" />
      <feGaussianBlur stdDeviation="7.5" in="shadowOffsetInner" result="shadowGaussian" />
      <feComposite in2="shadowGaussian" operator="atop" in="SourceAlpha" result="shadowComposite" />
      <feColorMatrix type="matrix" values="0 0 0 0 0  0 0 0 0 0  0 0 0 0 0  0 0 0 0.247058823529412 0  " in="shadowComposite" />
    </filter>
    <g id="widget668">
      <path d="M 39.5 2642.19289749798  C 39.5 2642.19289749798  39.5 2587  39.5 2587  C 39.5 2567.39389138101  55.3938913810068 2551.5  75 2551.5  C 75 2551.5  245 2551.5  245 2551.5  C 264.606108618993 2551.5  280.5 2567.39389138101  280.5 2587  C 280.5 2587  280.5 2642.19289749798  280.5 2642.19289749798  C 280.5 2661.79900611698  264.606108618993 2677.69289749798  245 2677.69289749798  C 245 2677.69289749798  191.884035778996 2677.69289749798  191.884035778996 2677.69289749798  C 191.884035778996 2677.69289749798  159.836453219442 2727.95477554099  159.836453219442 2727.95477554099  C 159.836453219442 2727.95477554099  127.980485255748 2677.69289749798  127.980485255748 2677.69289749798  C 127.980485255748 2677.69289749798  75 2677.69289749798  75 2677.69289749798  C 55.3938913810068 2677.69289749798  39.5 2661.79900611698  39.5 2642.19289749798  Z " fill-rule="nonzero" fill="#ffffff" stroke="none" />
      <path d="M 35 2642.19289749798  C 35 2642.19289749798  35 2587  35 2587  C 35 2564.90861000677  52.9086100067683 2547  75 2547  C 75 2547  245 2547  245 2547  C 267.091389993232 2547  285 2564.90861000677  285 2587  C 285 2587  285 2642.19289749798  285 2642.19289749798  C 285 2664.28428749121  267.091389993232 2682.19289749798  245 2682.19289749798  C 245 2682.19289749798  194.351692484224 2682.19289749798  194.351692484224 2682.19289749798  C 194.351692484224 2682.19289749798  159.825066086141 2736.34278796264  159.825066086141 2736.34278796264  C 159.825066086141 2736.34278796264  125.504876649454 2682.19289749798  125.504876649454 2682.19289749798  C 125.504876649454 2682.19289749798  75 2682.19289749798  75 2682.19289749798  C 52.9086100067683 2682.19289749798  35 2664.28428749121  35 2642.19289749798  Z M 40 2642.19289749798  C 40 2661.52286374206  55.6700337559222 2677.19289749798  75 2677.19289749798  C 75 2677.19289749798  128.25555287867 2677.19289749798  128.25555287867 2677.19289749798  C 128.25555287867 2677.19289749798  159.837718456475 2727.02277416081  159.837718456475 2727.02277416081  C 159.837718456475 2727.02277416081  191.609851700637 2677.19289749798  191.609851700637 2677.19289749798  C 191.609851700637 2677.19289749798  245 2677.19289749798  245 2677.19289749798  C 264.329966244078 2677.19289749798  280 2661.52286374206  280 2642.19289749798  C 280 2642.19289749798  280 2587  280 2587  C 280 2567.67003375592  264.329966244078 2552  245 2552  C 245 2552  75 2552  75 2552  C 55.6700337559222 2552  40 2567.67003375592  40 2587  C 40 2587  40 2642.19289749798  40 2642.19289749798  Z " fill-rule="nonzero" fill="#e54f4f" stroke="none" />
    </g>
  </defs>
  <g transform="matrix(1 0 0 1 -20 -2547 )">
    <use xlink:href="#widget668" filter="url(#filter667)" />
    <use xlink:href="#widget668" />
  </g>
</svg>