<?xml version="1.0" encoding="utf-8"?>
<svg version="1.1" xmlns:xlink="http://www.w3.org/1999/xlink" width="78px" height="83px" xmlns="http://www.w3.org/2000/svg">
  <defs>
    <filter x="421px" y="2748px" width="78px" height="83px" filterUnits="userSpaceOnUse" id="filter673">
      <feOffset dx="0" dy="20" in="SourceAlpha" result="shadowOffsetInner" />
      <feGaussianBlur stdDeviation="7.5" in="shadowOffsetInner" result="shadowGaussian" />
      <feComposite in2="shadowGaussian" operator="atop" in="SourceAlpha" result="shadowComposite" />
      <feColorMatrix type="matrix" values="0 0 0 0 0  0 0 0 0 0  0 0 0 0 0  0 0 0 0.247058823529412 0  " in="shadowComposite" />
    </filter>
    <g id="widget674">
      <path d="M 460 2757  C 468.4 2757  475 2763.6  475 2772  C 475 2780.4  468.4 2787  460 2787  C 451.6 2787  445 2780.4  445 2772  C 445 2763.6  451.6 2757  460 2757  Z " fill-rule="nonzero" fill="#ffffff" stroke="none" />
      <path d="M 460 2753  C 470.64 2753  479 2761.36  479 2772  C 479 2782.64  470.64 2791  460 2791  C 449.36 2791  441 2782.64  441 2772  C 441 2761.36  449.36 2753  460 2753  Z " stroke-width="10" stroke="#26678e" fill="none" />
    </g>
  </defs>
  <g transform="matrix(1 0 0 1 -421 -2748 )">
    <use xlink:href="#widget674" filter="url(#filter673)" />
    <use xlink:href="#widget674" />
  </g>
</svg>