<?xml version="1.0" encoding="utf-8"?>
<svg version="1.1" xmlns:xlink="http://www.w3.org/1999/xlink" width="280px" height="225px" xmlns="http://www.w3.org/2000/svg">
  <defs>
    <filter x="320px" y="2547px" width="280px" height="225px" filterUnits="userSpaceOnUse" id="filter675">
      <feOffset dx="0" dy="20" in="SourceAlpha" result="shadowOffsetInner" />
      <feGaussianBlur stdDeviation="7.5" in="shadowOffsetInner" result="shadowGaussian" />
      <feComposite in2="shadowGaussian" operator="atop" in="SourceAlpha" result="shadowComposite" />
      <feColorMatrix type="matrix" values="0 0 0 0 0  0 0 0 0 0  0 0 0 0 0  0 0 0 0.247058823529412 0  " in="shadowComposite" />
    </filter>
    <g id="widget676">
      <path d="M 339.5 2642.19289749798  C 339.5 2642.19289749798  339.5 2587  339.5 2587  C 339.5 2567.39389138101  355.393891381007 2551.5  375 2551.5  C 375 2551.5  545 2551.5  545 2551.5  C 564.606108618993 2551.5  580.5 2567.39389138101  580.5 2587  C 580.5 2587  580.5 2642.19289749798  580.5 2642.19289749798  C 580.5 2661.79900611698  564.606108618993 2677.69289749798  545 2677.69289749798  C 545 2677.69289749798  495.272159905476 2677.69289749798  495.272159905476 2677.69289749798  C 495.272159905476 2677.69289749798  459.585963750193 2728.8228270405  459.585963750193 2728.8228270405  C 459.585963750193 2728.8228270405  418.834525426864 2677.69289749798  418.834525426864 2677.69289749798  C 418.834525426864 2677.69289749798  375 2677.69289749798  375 2677.69289749798  C 355.393891381007 2677.69289749798  339.5 2661.79900611698  339.5 2642.19289749798  Z " fill-rule="nonzero" fill="#ffffff" stroke="none" />
      <path d="M 335 2642.19289749798  C 335 2642.19289749798  335 2587  335 2587  C 335 2564.90861000677  352.908610006768 2547  375 2547  C 375 2547  545 2547  545 2547  C 567.091389993232 2547  585 2564.90861000677  585 2587  C 585 2587  585 2642.19289749798  585 2642.19289749798  C 585 2664.28428749121  567.091389993232 2682.19289749798  545 2682.19289749798  C 545 2682.19289749798  497.619047619049 2682.19289749798  497.619047619049 2682.19289749798  C 497.619047619049 2682.19289749798  459.825066086141 2736.34278796264  459.825066086141 2736.34278796264  C 459.825066086141 2736.34278796264  416.666666666668 2682.19289749798  416.666666666668 2682.19289749798  C 416.666666666668 2682.19289749798  375 2682.19289749798  375 2682.19289749798  C 352.908610006768 2682.19289749798  335 2664.28428749121  335 2642.19289749798  Z M 340 2642.19289749798  C 340 2661.52286374206  355.670033755922 2677.19289749798  375 2677.19289749798  C 375 2677.19289749798  419.075398622441 2677.19289749798  419.075398622441 2677.19289749798  C 419.075398622441 2677.19289749798  459.559396823977 2727.98727582693  459.559396823977 2727.98727582693  C 459.559396823977 2727.98727582693  495.011394603968 2677.19289749798  495.011394603968 2677.19289749798  C 495.011394603968 2677.19289749798  545 2677.19289749798  545 2677.19289749798  C 564.329966244078 2677.19289749798  580 2661.52286374206  580 2642.19289749798  C 580 2642.19289749798  580 2587  580 2587  C 580 2567.67003375592  564.329966244078 2552  545 2552  C 545 2552  375 2552  375 2552  C 355.670033755922 2552  340 2567.67003375592  340 2587  C 340 2587  340 2642.19289749798  340 2642.19289749798  Z " fill-rule="nonzero" fill="#26678e" stroke="none" />
    </g>
  </defs>
  <g transform="matrix(1 0 0 1 -320 -2547 )">
    <use xlink:href="#widget676" filter="url(#filter675)" />
    <use xlink:href="#widget676" />
  </g>
</svg>