<?xml version="1.0" encoding="utf-8"?>
<svg version="1.1" xmlns:xlink="http://www.w3.org/1999/xlink" width="280px" height="225px" xmlns="http://www.w3.org/2000/svg">
  <defs>
    <filter x="620px" y="2547px" width="280px" height="225px" filterUnits="userSpaceOnUse" id="filter686">
      <feOffset dx="0" dy="20" in="SourceAlpha" result="shadowOffsetInner" />
      <feGaussianBlur stdDeviation="7.5" in="shadowOffsetInner" result="shadowGaussian" />
      <feComposite in2="shadowGaussian" operator="atop" in="SourceAlpha" result="shadowComposite" />
      <feColorMatrix type="matrix" values="0 0 0 0 0  0 0 0 0 0  0 0 0 0 0  0 0 0 0.247058823529412 0  " in="shadowComposite" />
    </filter>
    <g id="widget687">
      <path d="M 639.5 2642.19289749798  C 639.5 2642.19289749798  639.5 2587  639.5 2587  C 639.5 2567.39389138101  655.393891381007 2551.5  675 2551.5  C 675 2551.5  845 2551.5  845 2551.5  C 864.606108618993 2551.5  880.5 2567.39389138101  880.5 2587  C 880.5 2587  880.5 2642.19289749798  880.5 2642.19289749798  C 880.5 2661.79900611698  864.606108618993 2677.69289749798  845 2677.69289749798  C 845 2677.69289749798  795.272159905476 2677.69289749798  795.272159905476 2677.69289749798  C 795.272159905476 2677.69289749798  759.585963750193 2728.8228270405  759.585963750193 2728.8228270405  C 759.585963750193 2728.8228270405  718.834525426864 2677.69289749798  718.834525426864 2677.69289749798  C 718.834525426864 2677.69289749798  675 2677.69289749798  675 2677.69289749798  C 655.393891381007 2677.69289749798  639.5 2661.79900611698  639.5 2642.19289749798  Z " fill-rule="nonzero" fill="#ffffff" stroke="none" />
      <path d="M 635 2642.19289749798  C 635 2642.19289749798  635 2587  635 2587  C 635 2564.90861000677  652.908610006768 2547  675 2547  C 675 2547  845 2547  845 2547  C 867.091389993232 2547  885 2564.90861000677  885 2587  C 885 2587  885 2642.19289749798  885 2642.19289749798  C 885 2664.28428749121  867.091389993232 2682.19289749798  845 2682.19289749798  C 845 2682.19289749798  797.619047619049 2682.19289749798  797.619047619049 2682.19289749798  C 797.619047619049 2682.19289749798  759.825066086141 2736.34278796264  759.825066086141 2736.34278796264  C 759.825066086141 2736.34278796264  716.666666666668 2682.19289749798  716.666666666668 2682.19289749798  C 716.666666666668 2682.19289749798  675 2682.19289749798  675 2682.19289749798  C 652.908610006768 2682.19289749798  635 2664.28428749121  635 2642.19289749798  Z M 640 2642.19289749798  C 640 2661.52286374206  655.670033755922 2677.19289749798  675 2677.19289749798  C 675 2677.19289749798  719.075398622441 2677.19289749798  719.075398622441 2677.19289749798  C 719.075398622441 2677.19289749798  759.559396823977 2727.98727582693  759.559396823977 2727.98727582693  C 759.559396823977 2727.98727582693  795.011394603968 2677.19289749798  795.011394603968 2677.19289749798  C 795.011394603968 2677.19289749798  845 2677.19289749798  845 2677.19289749798  C 864.329966244078 2677.19289749798  880 2661.52286374206  880 2642.19289749798  C 880 2642.19289749798  880 2587  880 2587  C 880 2567.67003375592  864.329966244078 2552  845 2552  C 845 2552  675 2552  675 2552  C 655.670033755922 2552  640 2567.67003375592  640 2587  C 640 2587  640 2642.19289749798  640 2642.19289749798  Z " fill-rule="nonzero" fill="#329b29" stroke="none" />
    </g>
  </defs>
  <g transform="matrix(1 0 0 1 -620 -2547 )">
    <use xlink:href="#widget687" filter="url(#filter686)" />
    <use xlink:href="#widget687" />
  </g>
</svg>