<?xml version="1.0" encoding="utf-8"?>
<svg version="1.1" xmlns:xlink="http://www.w3.org/1999/xlink" width="48px" height="48px" xmlns="http://www.w3.org/2000/svg">
  <g transform="matrix(1 0 0 1 -1036 -2748 )">
    <path d="M 1060 2757  C 1068.4 2757  1075 2763.6  1075 2772  C 1075 2780.4  1068.4 2787  1060 2787  C 1051.6 2787  1045 2780.4  1045 2772  C 1045 2763.6  1051.6 2757  1060 2757  Z " fill-rule="nonzero" fill="#ffffff" stroke="none" />
    <path d="M 1060 2753  C 1070.64 2753  1079 2761.36  1079 2772  C 1079 2782.64  1070.64 2791  1060 2791  C 1049.36 2791  1041 2782.64  1041 2772  C 1041 2761.36  1049.36 2753  1060 2753  Z " stroke-width="10" stroke="#b23d91" fill="none" />
  </g>
</svg>