<?xml version="1.0" encoding="utf-8"?>
<svg version="1.1" xmlns:xlink="http://www.w3.org/1999/xlink" width="250px" height="190px" xmlns="http://www.w3.org/2000/svg">
  <g transform="matrix(1 0 0 1 -935 -2547 )">
    <path d="M 939.5 2642.19289749798  C 939.5 2642.19289749798  939.5 2587  939.5 2587  C 939.5 2567.39389138101  955.393891381007 2551.5  975 2551.5  C 975 2551.5  1145 2551.5  1145 2551.5  C 1164.60610861899 2551.5  1180.5 2567.39389138101  1180.5 2587  C 1180.5 2587  1180.5 2642.19289749798  1180.5 2642.19289749798  C 1180.5 2661.79900611698  1164.60610861899 2677.69289749798  1145 2677.69289749798  C 1145 2677.69289749798  1095.27215990548 2677.69289749798  1095.27215990548 2677.69289749798  C 1095.27215990548 2677.69289749798  1059.58596375019 2728.8228270405  1059.58596375019 2728.8228270405  C 1059.58596375019 2728.8228270405  1018.83452542686 2677.69289749798  1018.83452542686 2677.69289749798  C 1018.83452542686 2677.69289749798  975 2677.69289749798  975 2677.69289749798  C 955.393891381007 2677.69289749798  939.5 2661.79900611698  939.5 2642.19289749798  Z " fill-rule="nonzero" fill="#ffffff" stroke="none" />
    <path d="M 935 2642.19289749798  C 935 2642.19289749798  935 2587  935 2587  C 935 2564.90861000677  952.908610006768 2547  975 2547  C 975 2547  1145 2547  1145 2547  C 1167.09138999323 2547  1185 2564.90861000677  1185 2587  C 1185 2587  1185 2642.19289749798  1185 2642.19289749798  C 1185 2664.28428749121  1167.09138999323 2682.19289749798  1145 2682.19289749798  C 1145 2682.19289749798  1097.61904761905 2682.19289749798  1097.61904761905 2682.19289749798  C 1097.61904761905 2682.19289749798  1059.82506608614 2736.34278796264  1059.82506608614 2736.34278796264  C 1059.82506608614 2736.34278796264  1016.66666666667 2682.19289749798  1016.66666666667 2682.19289749798  C 1016.66666666667 2682.19289749798  975 2682.19289749798  975 2682.19289749798  C 952.908610006768 2682.19289749798  935 2664.28428749121  935 2642.19289749798  Z M 940 2642.19289749798  C 940 2661.52286374206  955.670033755922 2677.19289749798  975 2677.19289749798  C 975 2677.19289749798  1019.07539862244 2677.19289749798  1019.07539862244 2677.19289749798  C 1019.07539862244 2677.19289749798  1059.55939682398 2727.98727582693  1059.55939682398 2727.98727582693  C 1059.55939682398 2727.98727582693  1095.01139460397 2677.19289749798  1095.01139460397 2677.19289749798  C 1095.01139460397 2677.19289749798  1145 2677.19289749798  1145 2677.19289749798  C 1164.32996624408 2677.19289749798  1180 2661.52286374206  1180 2642.19289749798  C 1180 2642.19289749798  1180 2587  1180 2587  C 1180 2567.67003375592  1164.32996624408 2552  1145 2552  C 1145 2552  975 2552  975 2552  C 955.670033755922 2552  940 2567.67003375592  940 2587  C 940 2587  940 2642.19289749798  940 2642.19289749798  Z " fill-rule="nonzero" fill="#b23d91" stroke="none" />
  </g>
</svg>