<?xml version="1.0" encoding="utf-8"?>
<svg version="1.1" xmlns:xlink="http://www.w3.org/1999/xlink" width="78px" height="83px" xmlns="http://www.w3.org/2000/svg">
  <defs>
    <filter x="1321px" y="2748px" width="78px" height="83px" filterUnits="userSpaceOnUse" id="filter700">
      <feOffset dx="0" dy="20" in="SourceAlpha" result="shadowOffsetInner" />
      <feGaussianBlur stdDeviation="7.5" in="shadowOffsetInner" result="shadowGaussian" />
      <feComposite in2="shadowGaussian" operator="atop" in="SourceAlpha" result="shadowComposite" />
      <feColorMatrix type="matrix" values="0 0 0 0 0  0 0 0 0 0  0 0 0 0 0  0 0 0 0.247058823529412 0  " in="shadowComposite" />
    </filter>
    <g id="widget701">
      <path d="M 1360 2757  C 1368.4 2757  1375 2763.6  1375 2772  C 1375 2780.4  1368.4 2787  1360 2787  C 1351.6 2787  1345 2780.4  1345 2772  C 1345 2763.6  1351.6 2757  1360 2757  Z " fill-rule="nonzero" fill="#ffffff" stroke="none" />
      <path d="M 1360 2753  C 1370.64 2753  1379 2761.36  1379 2772  C 1379 2782.64  1370.64 2791  1360 2791  C 1349.36 2791  1341 2782.64  1341 2772  C 1341 2761.36  1349.36 2753  1360 2753  Z " stroke-width="10" stroke="#e36297" fill="none" />
    </g>
  </defs>
  <g transform="matrix(1 0 0 1 -1321 -2748 )">
    <use xlink:href="#widget701" filter="url(#filter700)" />
    <use xlink:href="#widget701" />
  </g>
</svg>