<?xml version="1.0" encoding="utf-8"?>
<svg version="1.1" xmlns:xlink="http://www.w3.org/1999/xlink" width="280px" height="225px" xmlns="http://www.w3.org/2000/svg">
  <defs>
    <filter x="1220px" y="2547px" width="280px" height="225px" filterUnits="userSpaceOnUse" id="filter702">
      <feOffset dx="0" dy="20" in="SourceAlpha" result="shadowOffsetInner" />
      <feGaussianBlur stdDeviation="7.5" in="shadowOffsetInner" result="shadowGaussian" />
      <feComposite in2="shadowGaussian" operator="atop" in="SourceAlpha" result="shadowComposite" />
      <feColorMatrix type="matrix" values="0 0 0 0 0  0 0 0 0 0  0 0 0 0 0  0 0 0 0.247058823529412 0  " in="shadowComposite" />
    </filter>
    <g id="widget703">
      <path d="M 1239.5 2642.19289749798  C 1239.5 2642.19289749798  1239.5 2587  1239.5 2587  C 1239.5 2567.39389138101  1255.39389138101 2551.5  1275 2551.5  C 1275 2551.5  1445 2551.5  1445 2551.5  C 1464.60610861899 2551.5  1480.5 2567.39389138101  1480.5 2587  C 1480.5 2587  1480.5 2642.19289749798  1480.5 2642.19289749798  C 1480.5 2661.79900611698  1464.60610861899 2677.69289749798  1445 2677.69289749798  C 1445 2677.69289749798  1395.27215990548 2677.69289749798  1395.27215990548 2677.69289749798  C 1395.27215990548 2677.69289749798  1359.58596375019 2728.8228270405  1359.58596375019 2728.8228270405  C 1359.58596375019 2728.8228270405  1318.83452542686 2677.69289749798  1318.83452542686 2677.69289749798  C 1318.83452542686 2677.69289749798  1275 2677.69289749798  1275 2677.69289749798  C 1255.39389138101 2677.69289749798  1239.5 2661.79900611698  1239.5 2642.19289749798  Z " fill-rule="nonzero" fill="#ffffff" stroke="none" />
      <path d="M 1235 2642.19289749798  C 1235 2642.19289749798  1235 2587  1235 2587  C 1235 2564.90861000677  1252.90861000677 2547  1275 2547  C 1275 2547  1445 2547  1445 2547  C 1467.09138999323 2547  1485 2564.90861000677  1485 2587  C 1485 2587  1485 2642.19289749798  1485 2642.19289749798  C 1485 2664.28428749121  1467.09138999323 2682.19289749798  1445 2682.19289749798  C 1445 2682.19289749798  1397.61904761905 2682.19289749798  1397.61904761905 2682.19289749798  C 1397.61904761905 2682.19289749798  1359.82506608614 2736.34278796264  1359.82506608614 2736.34278796264  C 1359.82506608614 2736.34278796264  1316.66666666667 2682.19289749798  1316.66666666667 2682.19289749798  C 1316.66666666667 2682.19289749798  1275 2682.19289749798  1275 2682.19289749798  C 1252.90861000677 2682.19289749798  1235 2664.28428749121  1235 2642.19289749798  Z M 1240 2642.19289749798  C 1240 2661.52286374206  1255.67003375592 2677.19289749798  1275 2677.19289749798  C 1275 2677.19289749798  1319.07539862244 2677.19289749798  1319.07539862244 2677.19289749798  C 1319.07539862244 2677.19289749798  1359.55939682398 2727.98727582693  1359.55939682398 2727.98727582693  C 1359.55939682398 2727.98727582693  1395.01139460397 2677.19289749798  1395.01139460397 2677.19289749798  C 1395.01139460397 2677.19289749798  1445 2677.19289749798  1445 2677.19289749798  C 1464.32996624408 2677.19289749798  1480 2661.52286374206  1480 2642.19289749798  C 1480 2642.19289749798  1480 2587  1480 2587  C 1480 2567.67003375592  1464.32996624408 2552  1445 2552  C 1445 2552  1275 2552  1275 2552  C 1255.67003375592 2552  1240 2567.67003375592  1240 2587  C 1240 2587  1240 2642.19289749798  1240 2642.19289749798  Z " fill-rule="nonzero" fill="#e36297" stroke="none" />
    </g>
  </defs>
  <g transform="matrix(1 0 0 1 -1220 -2547 )">
    <use xlink:href="#widget703" filter="url(#filter702)" />
    <use xlink:href="#widget703" />
  </g>
</svg>