<?xml version="1.0" encoding="utf-8"?>
<svg version="1.1" xmlns:xlink="http://www.w3.org/1999/xlink" width="43px" height="50px" xmlns="http://www.w3.org/2000/svg">
  <defs>
    <linearGradient gradientUnits="userSpaceOnUse" x1="21.07" y1="25" x2="21.07" y2="0.5" id="LinearGradient767">
      <stop id="Stop768" stop-color="#fea553" offset="0" />
      <stop id="Stop769" stop-color="#00cc83" offset="1" />
    </linearGradient>
  </defs>
  <g transform="matrix(1 0 0 1 -691 -416 )">
    <path d="M 38.2688802083333 30.56640625  C 39.0340711805556 29.6642485119048  39.4166666666667 28.4040178571429  39.4166666666667 26.7857142857143  C 39.4166666666667 25.2232142857143  39.1180555555556 23.5212053571429  38.5208333333333 21.6796875  C 37.9236111111111 19.8381696428571  37.3263888888889 18.0338541666667  36.7291666666667 16.2667410714286  C 36.1319444444444 14.4996279761905  35.8333333333333 12.9464285714286  35.8333333333333 11.6071428571429  L 35.8333333333333 11  L 17.9166666666667 11  L 17.9166666666667 11.6071428571429  C 17.9166666666667 12.2581845238095  17.8046875 12.8859747023809  17.5807291666667 13.4905133928571  C 17.3567708333333 14.0950520833333  17.0115017361111 14.6763392857143  16.544921875 15.234375  C 16.0783420138889 15.7924107142857  15.6490885416667 16.2574404761905  15.2571614583333 16.6294642857143  C 14.865234375 17.0014880952381  14.361328125 17.4572172619048  13.7454427083333 17.9966517857143  C 13.5774739583333 18.1454613095238  13.4468315972222 18.2570684523809  13.353515625 18.3314732142857  C 11.841796875 19.6707589285714  10.4887152777778 20.7124255952381  9.29427083333333 21.4564732142857  C 8.88368055555556 21.7168898809524  8.24913194444444 22.0703125  7.390625 22.5167410714286  C 7.33463541666667 22.5353422619048  7.12467447916667 22.6329985119048  6.7607421875 22.8097098214286  C 6.39680989583333 22.9864211309524  6.06087239583333 23.1584821428571  5.7529296875 23.3258928571429  C 5.44498697916667 23.4933035714286  5.11371527777778 23.6793154761905  4.75911458333333 23.8839285714286  C 4.40451388888889 24.0885416666667  4.11990017361111 24.2885044642857  3.9052734375 24.4838169642857  C 3.69064670138889 24.6791294642857  3.58333333333333 24.8511904761905  3.58333333333333 25  C 3.58333333333333 26.3206845238095  3.86794704861111 27.3949032738095  4.43717447916667 28.22265625  C 5.00640190972222 29.0504092261905  5.91623263888889 29.4642857142857  7.16666666666667 29.4642857142857  C 7.96918402777778 29.4642857142857  8.75770399305556 29.3247767857143  9.5322265625 29.0457589285714  C 10.3067491319444 28.7667410714286  10.9412977430556 28.4598214285714  11.4358723958333 28.125  C 11.9304470486111 27.7901785714286  12.4436848958333 27.4832589285714  12.9755859375 27.2042410714286  C 13.5074869791667 26.9252232142857  13.9600694444444 26.7857142857143  15 26.7857142857143  L 15 42.8571428571429  C 14.3333333333333 43.7872023809524  14.6925998263889 44.6149553571429  15.4111328125 45.3404017857143  C 16.1296657986111 46.0658482142857  16.96484375 46.4285714285714  17.9166666666667 46.4285714285714  C 18.8871527777778 46.4285714285714  19.7269965277778 46.0751488095238  20.4361979166667 45.3683035714286  C 21.1453993055556 44.6614583333333  21.5 43.8244047619048  21.5 42.8571428571429  L 21.5 33.6216517857143  C 22.3585069444444 34.272693452381  23.3196614583333 34.5982142857143  24.3834635416667 34.5982142857143  C 25.6712239583333 34.5982142857143  26.7816840277778 34.1052827380952  27.71484375 33.1194196428571  C 28.3120659722222 33.4542410714286  28.9559461805556 33.6216517857143  29.646484375 33.6216517857143  C 30.3370225694444 33.6216517857143  31.0228949652778 33.4588913690476  31.7041015625 33.1333705357143  C 32.3853081597222 32.807849702381  32.8752170138889 32.3660714285714  33.173828125 31.8080357142857  C 33.6217447916667 31.8824404761905  34.1443142361111 31.9196428571429  34.7415364583333 31.9196428571429  C 36.3279079861111 31.9196428571429  37.5036892361111 31.4685639880952  38.2688802083333 30.56640625  Z M 35.3014322916667 6.61272321428572  C 35.6560329861111 6.25930059523809  35.8333333333333 5.84077380952381  35.8333333333333 5.35714285714286  C 35.8333333333333 4.8735119047619  35.6560329861111 4.45498511904762  35.3014322916667 4.1015625  C 34.9468315972222 3.74813988095238  34.5269097222222 3.57142857142857  34.0416666666667 3.57142857142857  C 33.5564236111111 3.57142857142857  33.1365017361111 3.74813988095238  32.7819010416667 4.1015625  C 32.4273003472222 4.45498511904762  32.25 4.8735119047619  32.25 5.35714285714286  C 32.25 5.84077380952381  32.4273003472222 6.25930059523809  32.7819010416667 6.61272321428572  C 33.1365017361111 6.96614583333333  33.5564236111111 7.14285714285715  34.0416666666667 7.14285714285715  C 34.5269097222222 7.14285714285715  34.9468315972222 6.96614583333333  35.3014322916667 6.61272321428572  Z M 41.068359375 17.8292410714286  C 42.3561197916667 21.3634672619048  43 24.3117559523809  43 26.6741071428571  C 43 29.3154761904762  42.2768012152778 31.4546130952381  40.8304036458333 33.0915178571429  C 39.3840060763889 34.7284226190476  37.3543836805556 35.5375744047619  34.7415364583333 35.5189732142857  L 34.6015625 35.4910714285714  C 33.1831597222222 36.625744047619  31.5221354166667 37.1930803571429  29.6184895833333 37.1930803571429  C 29.2078993055556 37.1930803571429  28.806640625 37.1651785714286  28.4147135416667 37.109375  C 27.4069010416667 37.6674107142857  26.2964409722222 38.0115327380952  25.0833333333333 38.1417410714286  L 25.0833333333333 42.8571428571429  C 25.0833333333333 44.8102678571429  24.3741319444444 46.4890252976191  22.9557291666667 47.8934151785714  C 21.5373263888889 49.2978050595238  19.8483072916667 50  17.888671875 50  C 15.9663628472222 50  14.2960069444444 49.2931547619048  12.8776041666667 47.8794642857143  C 11.4592013888889 46.4657738095238  10.75 44.7916666666667  11 42.8571428571429  L 11 32.421875  C 9.7421875 32.8311011904762  8.54774305555556 33.0357142857143  7.16666666666667 33.0357142857143  C 4.90842013888889 33.0357142857143  3.1494140625 32.2777157738095  1.8896484375 30.76171875  C 0.6298828125 29.2457217261905  0 27.3251488095238  0 25  C 0 24.2931547619048  0.163302951388889 23.6467633928571  0.489908854166667 23.0608258928571  C 0.816514756944445 22.4748883928571  1.27842881944444 21.9633556547619  1.87565104166667 21.5262276785714  C 2.47287326388889 21.0890997023809  3.06076388888889 20.7124255952381  3.63932291666667 20.3962053571429  C 4.21788194444444 20.0799851190476  4.88975694444444 19.7358630952381  5.65494791666667 19.3638392857143  C 6.42013888888889 18.9918154761905  6.99869791666667 18.6848958333333  7.390625 18.4430803571429  C 8.41710069444444 17.7920386904762  9.62087673611111 16.8619791666667  11.001953125 15.6529017857143  C 11.0579427083333 15.6156994047619  11.2165798611111 15.4854910714286  11.4778645833333 15.2622767857143  C 11.7391493055556 15.0390625  11.9397786458333 14.8623511904762  12.0797526041667 14.7321428571429  C 12.2197265625 14.6019345238095  12.4203559027778 14.4112723214286  12.681640625 14.16015625  C 12.9429253472222 13.9090401785714  13.1528862847222 13.6858258928571  13.3115234375 13.4905133928571  C 13.4701605902778 13.2952008928571  13.6381293402778 13.0859375  13.8154296875 12.8627232142857  C 13.9927300347222 12.6395089285714  14.1233723958333 12.4209449404762  14.2073567708333 12.20703125  C 14.2913411458333 11.9931175595238  14.3333333333333 11.7931547619048  14.3333333333333 11.6071428571429  L 14.3333333333333 3.57142857142857  C 14.3333333333333 2.58556547619047  14.6832682291667 1.74386160714285  15.3831380208333 1.04631696428572  C 16.0830078125 0.34877232142857  16.9275173611111 0  17.9166666666667 0  L 35.8333333333333 0  C 36.8224826388889 0  37.6669921875 0.34877232142857  38.3668619791667 1.04631696428572  C 39.0667317708333 1.74386160714285  39.4166666666667 2.58556547619047  39.4166666666667 3.57142857142857  L 39.4166666666667 11.6071428571429  C 39.4166666666667 12.7046130952381  39.9672309027778 14.7786458333333  41.068359375 17.8292410714286  Z " fill-rule="nonzero" fill="url(#LinearGradient767)" stroke="none" transform="matrix(1 0 0 1 691 416 )" />
  </g>
</svg>